# xmcd CD database file
#
# Track frame offsets:
#	150
#	7226
#	24878
#	38830
#	56432
#	70909
#	96001
#	107178
#	121699
#	141913
#	155008
#	169970
#	185003
#	192715
#	206452
#	222157
#	243321
#	277353
#
# Disc length: 4340 seconds
#
# Revision: 0
# Processed by: cddbd v1.5.2PL0 Copyright (c) Steve Scherf et al.
# Submitted via: CDex 1.51
#
DISCID=1010f212
DTITLE=Veiga and Salazar - Original
DYEAR=2000
DGENRE=Jazz
TTITLE0=Shaolin
TTITLE1=Brasileiro
TTITLE2=Global
TTITLE3=Arte sequencial
TTITLE4=Se lembra?
TTITLE5=Ferias
TTITLE6=Quem errou?
TTITLE7=Adao e Eva
TTITLE8=Eu so queria sumir
TTITLE9=Barbecue hip pop
TTITLE10=Cilada
TTITLE11=Ironman
TTITLE12=Ser normal 2000
TTITLE13=Agua preta
TTITLE14=Pensando na vida
TTITLE15=Cafe funk Brasil
TTITLE16=En el frente
TTITLE17=Data
EXTD=YEAR: 2000
EXTT0=
EXTT1=
EXTT2=
EXTT3=
EXTT4=
EXTT5=
EXTT6=
EXTT7=
EXTT8=
EXTT9=
EXTT10=
EXTT11=
EXTT12=
EXTT13=
EXTT14=
EXTT15=
EXTT16=
EXTT17=
PLAYORDER=
